<?xml version="1.0" encoding="utf-8"?>
<!-- Generator: Adobe Illustrator 15.0.0, SVG Export Plug-In . SVG Version: 6.00 Build 0)  -->
<!DOCTYPE svg PUBLIC "-//W3C//DTD SVG 1.1//EN" "http://www.w3.org/Graphics/SVG/1.1/DTD/svg11.dtd">
<svg version="1.1"
	 id="Layer_1" xmlns:dc="http://purl.org/dc/elements/1.1/" xmlns:rdf="http://www.w3.org/1999/02/22-rdf-syntax-ns#" xmlns:cc="http://creativecommons.org/ns#" xmlns:svg="http://www.w3.org/2000/svg"
	 xmlns="http://www.w3.org/2000/svg" xmlns:xlink="http://www.w3.org/1999/xlink" x="0px" y="0px" width="100%" height="100%"
	 viewBox="0 0 1024 1024" enable-background="new 0 0 1024 1024" xml:space="preserve">
<g id="Layer_7" transform="translate(0,1.3329999)" display="none">
	<g id="g4" display="inline">
		<path id="path6" d="M81.984,71.004h33.076l42.445,165.935c5.829,23.278,10.082,44.354,12.758,63.213
			c3.279-22.418,8.137-44.35,14.579-65.782l47.737-163.36h32.802l50.611,165.092c5.947,18.916,10.974,40.271,15.063,64.063
			c2.355-17.393,6.816-38.59,13.395-63.578L387.213,71.01h33.076l-71.85,268.657h-30.874l-53.407-180.144
			c-2.361-7.982-5.326-17.987-8.897-30.021c-3.565-12.034-5.424-19.282-5.536-21.74c-2.691,16.171-6.975,33.876-12.852,53.108
			l-52.494,178.801h-30.834L81.984,71.004z"/>
	</g>
</g>
<g id="Layer_3" transform="translate(0,1.3329999)" display="none">
	<g id="g9" display="inline">
		<path id="path11" d="M150.803,339.665V71.004h35.279l146.442,224.558h1.447c-0.239-3.429-0.792-14.086-1.634-31.971
			c-0.603-13.966-0.91-24.811-0.91-32.519c0-2.205,0-4.163,0-5.868V71.02h28.854v268.657H325L178.18,114.186h-1.471
			c1.958,26.463,2.939,50.718,2.939,72.771v152.708H150.803L150.803,339.665z"/>
	</g>
</g>
<g id="Layer_4" transform="translate(0,1.3329999)" display="none">
	<g id="g14" display="inline">
		<path id="path16" d="M170.766,333.886v-29.961c11.024,4.66,23.029,8.348,36.019,11.037c12.984,2.693,25.847,4.05,38.593,4.05
			c20.862,0,36.57-3.952,47.123-11.874c10.56-7.918,15.837-18.916,15.837-33.047c0-9.324-1.871-16.953-5.613-22.913
			c-3.746-5.952-10.008-11.448-18.781-16.474c-8.774-5.026-22.116-10.742-40.039-17.121c-25.033-8.958-42.854-19.574-53.448-31.845
			c-10.598-12.266-15.897-28.276-15.897-48.037c0-20.724,7.752-37.221,23.263-49.481c15.51-12.261,36.021-18.392,61.547-18.392
			c26.635,0,51.132,4.9,73.481,14.7l-9.626,27.221c-22.146-9.329-43.68-13.989-64.598-13.989c-16.569,0-29.522,3.563-38.848,10.676
			c-9.323,7.118-13.986,16.995-13.986,29.637c0,9.324,1.716,16.963,5.152,22.918c3.434,5.953,9.233,11.411,17.397,16.381
			c8.156,4.971,20.646,10.46,37.453,16.474c28.229,10.065,47.579,20.863,58.063,32.397c10.475,11.539,15.714,26.511,15.714,44.91
			c0,23.556-8.561,41.927-25.658,55.101c-17.104,13.173-40.321,19.772-69.645,19.772
			C212.413,346.036,187.916,341.985,170.766,333.886L170.766,333.886z"/>
	</g>
</g>
<g id="Layer_5" transform="translate(0,1.3329999)" display="none">
	<g id="g19" display="inline">
		<path id="path21" d="M142.218,71.009h33.077l61.742,173.833c7.105,19.97,12.738,39.392,16.908,58.259
			c4.41-19.851,10.156-39.632,17.271-59.354l61.374-172.74h33.623l-96.844,268.659h-30.861L142.218,71.009z"/>
	</g>
</g>
<g id="Layer_6" transform="translate(0,1.3329999)" display="none">
	<g id="g24" display="inline">
		<path id="path26" d="M154.708,208.841c0-27.668,5.116-51.908,15.355-72.721c10.24-20.811,25.124-36.85,44.653-48.113
			c19.528-11.26,42.532-16.895,68.989-16.895c28.177,0,52.8,5.145,73.868,15.437l-13.229,26.816
			c-20.339-9.547-40.676-14.321-61.016-14.321c-29.531,0-52.84,9.826-69.918,29.471c-17.09,19.645-25.634,46.542-25.634,80.698
			c0,35.144,8.237,62.272,24.716,81.429c16.479,19.155,39.968,28.731,70.478,28.731c18.74,0,40.116-3.365,64.124-10.095v27.479
			c-18.621,7.031-41.592,10.546-68.905,10.546c-39.582,0-70.045-12.015-91.421-36.036
			C165.395,287.237,154.708,253.093,154.708,208.841z"/>
	</g>
</g>
<path id="path28" fill="#AA0707" d="M91.666,184.647"/>
<path id="path30" fill="#AA0707" d="M123.245,247.805"/>
<path id="path32" fill="#AA0707" d="M91.666,184.647"/>
<path id="path34" fill="#AA0707" d="M123.245,247.805"/>
<g>
	<path fill="#686868" d="M512.017,4.886C231.068,4.886,3.254,232.642,3.254,513.573c0,182.398,96.083,342.242,240.223,432.086
		V755.348l-166.7-166.814c-21.179-21.194-21.179-55.56,0-76.721c21.158-21.212,55.551-21.212,76.764,0l182.62,182.632
		c11.271,11.265,16.497,26.251,15.768,41.025c0.063,0.854,0.146,1.699,0.146,2.604v258.426
		c33.144,10.993,67.688,18.662,103.442,22.615V686.836c0,0,0-12.843-3.065-20.061c-3.04-7.225-10.504-14.135-10.504-14.135
		L214.899,425.638c-22.268-22.333-22.268-58.519,0.076-80.747c22.281-22.332,58.429-22.332,80.697,0L503.126,552.35
		c0,0,5.515,7.547,11.62,7.547c6.068,0,11.876-7.645,11.876-7.645l207.349-207.375c22.357-22.331,58.472-22.331,80.742,0
		c22.332,22.26,22.332,58.428,0.031,80.749L583.26,657.109c0,0-6.126,4.522-9.74,10.948c-3.612,6.429-3.809,19.406-3.809,19.406
		v331.491c35.945-4.06,70.743-11.886,103.994-23.024V736.323c0-4.187,0.556-8.25,1.432-12.172
		c1.728-10.854,6.813-21.301,15.179-29.681l182.634-182.646c21.171-21.214,55.552-21.214,76.773,0
		c21.121,21.155,21.121,55.522,0,76.719L782.34,756.042v188.519c143.182-90.055,238.406-249.326,238.406-430.975
		C1020.712,232.637,792.969,4.886,512.017,4.886z M512.597,402.756c-48.839,0-88.406-39.603-88.406-88.36
		c0-48.861,39.597-88.422,88.406-88.422c48.821,0,88.359,39.586,88.359,88.422C600.981,363.153,561.403,402.756,512.597,402.756z"/>
</g>
</svg>
