<?xml version="1.0" encoding="utf-8"?>
<!-- Generator: Adobe Illustrator 15.0.0, SVG Export Plug-In . SVG Version: 6.00 Build 0)  -->
<!DOCTYPE svg PUBLIC "-//W3C//DTD SVG 1.1//EN" "http://www.w3.org/Graphics/SVG/1.1/DTD/svg11.dtd">
<svg version="1.1"
	 id="Layer_1" xmlns:dc="http://purl.org/dc/elements/1.1/" xmlns:rdf="http://www.w3.org/1999/02/22-rdf-syntax-ns#" xmlns:cc="http://creativecommons.org/ns#" xmlns:svg="http://www.w3.org/2000/svg"
	 xmlns="http://www.w3.org/2000/svg" xmlns:xlink="http://www.w3.org/1999/xlink" x="0px" y="0px" width="100%" height="100%" viewBox="0 0 1024 1024" enable-background="new 0 0 1024 1024" xml:space="preserve">
<g id="Layer_7" transform="translate(0,1.3329999)" display="none">
	<g id="g4" display="inline">
		<path id="path6" d="M81.984,71.004h33.076l42.445,165.935c5.829,23.278,10.082,44.354,12.758,63.213
			c3.279-22.418,8.137-44.35,14.579-65.782l47.737-163.36h32.802l50.611,165.092c5.947,18.916,10.974,40.271,15.063,64.063
			c2.355-17.393,6.816-38.59,13.394-63.578L387.213,71.01h33.076l-71.85,268.657h-30.874l-53.407-180.144
			c-2.361-7.982-5.326-17.987-8.897-30.021c-3.565-12.034-5.424-19.282-5.536-21.74c-2.691,16.171-6.975,33.876-12.852,53.108
			l-52.494,178.801h-30.834L81.984,71.004z"/>
	</g>
</g>
<g id="Layer_3" transform="translate(0,1.3329999)" display="none">
	<g id="g9" display="inline">
		<path id="path11" d="M150.803,339.665V71.004h35.279l146.442,224.558h1.448c-0.24-3.429-0.792-14.086-1.634-31.971
			c-0.603-13.966-0.91-24.811-0.91-32.519c0-2.205,0-4.163,0-5.868V71.02h28.854v268.657H325L178.18,114.186h-1.471
			c1.958,26.463,2.939,50.718,2.939,72.771v152.708H150.803L150.803,339.665z"/>
	</g>
</g>
<g id="Layer_4" transform="translate(0,1.3329999)" display="none">
	<g id="g14" display="inline">
		<path id="path16" d="M170.766,333.886v-29.961c11.024,4.66,23.029,8.348,36.019,11.037c12.984,2.693,25.847,4.05,38.593,4.05
			c20.862,0,36.57-3.952,47.123-11.874c10.56-7.918,15.837-18.916,15.837-33.047c0-9.324-1.871-16.953-5.613-22.913
			c-3.746-5.952-10.008-11.448-18.781-16.474c-8.774-5.026-22.116-10.742-40.039-17.121c-25.033-8.958-42.854-19.574-53.448-31.845
			c-10.598-12.266-15.897-28.276-15.897-48.037c0-20.724,7.752-37.221,23.263-49.481c15.51-12.261,36.021-18.392,61.547-18.392
			c26.635,0,51.132,4.9,73.482,14.7l-9.626,27.221c-22.146-9.329-43.68-13.989-64.598-13.989c-16.569,0-29.522,3.563-38.848,10.676
			c-9.323,7.118-13.986,16.995-13.986,29.637c0,9.324,1.716,16.963,5.152,22.918c3.434,5.953,9.233,11.411,17.397,16.381
			c8.156,4.971,20.646,10.46,37.453,16.474c28.229,10.065,47.579,20.863,58.062,32.397c10.475,11.539,15.714,26.511,15.714,44.91
			c0,23.556-8.56,41.927-25.658,55.101c-17.104,13.173-40.321,19.772-69.645,19.772
			C212.413,346.036,187.916,341.985,170.766,333.886L170.766,333.886z"/>
	</g>
</g>
<g id="Layer_5" transform="translate(0,1.3329999)" display="none">
	<g id="g19" display="inline">
		<path id="path21" d="M142.218,71.009h33.077l61.742,173.833c7.105,19.97,12.738,39.392,16.908,58.259
			c4.41-19.851,10.156-39.632,17.271-59.354l61.374-172.74h33.623l-96.844,268.659h-30.861L142.218,71.009z"/>
	</g>
</g>
<g id="Layer_6" transform="translate(0,1.3329999)" display="none">
	<g id="g24" display="inline">
		<path id="path26" d="M154.708,208.841c0-27.668,5.116-51.908,15.355-72.721c10.24-20.811,25.124-36.85,44.653-48.113
			c19.528-11.26,42.532-16.895,68.989-16.895c28.177,0,52.8,5.145,73.868,15.437l-13.229,26.816
			c-20.339-9.547-40.676-14.321-61.016-14.321c-29.531,0-52.84,9.826-69.918,29.471c-17.09,19.645-25.634,46.542-25.634,80.698
			c0,35.144,8.237,62.272,24.716,81.429c16.479,19.155,39.968,28.731,70.478,28.731c18.74,0,40.116-3.365,64.124-10.095v27.479
			c-18.621,7.031-41.592,10.546-68.905,10.546c-39.582,0-70.045-12.015-91.421-36.036
			C165.395,287.237,154.708,253.093,154.708,208.841z"/>
	</g>
</g>
<path id="path28" fill="#AA0707" d="M91.666,184.647"/>
<path id="path30" fill="#AA0707" d="M123.245,247.805"/>
<path id="path32" fill="#AA0707" d="M91.666,184.647"/>
<path id="path34" fill="#AA0707" d="M123.245,247.805"/>
<g>
	<path fill="#686868" d="M512.013,9.346c-210.035,0-380.347,170.268-380.347,380.29c0,136.36,71.831,255.857,179.589,323.024
		V570.385L186.631,445.676c-15.833-15.845-15.833-41.535,0-57.356c15.817-15.858,41.529-15.858,57.388,0l136.525,136.534
		c8.427,8.422,12.333,19.625,11.788,30.671c0.047,0.639,0.109,1.271,0.109,1.946v193.196c24.778,8.219,50.604,13.952,77.333,16.907
		V519.166c0,0,0-9.602-2.292-14.997c-2.272-5.4-7.853-10.566-7.853-10.566L289.89,323.897
		c-16.647-16.697-16.647-43.748,0.057-60.366c16.657-16.695,43.681-16.695,60.328,0l155.091,155.095c0,0,4.123,5.641,8.687,5.641
		c4.537,0,8.879-5.714,8.879-5.714l155.012-155.032c16.714-16.695,43.712-16.695,60.362,0c16.695,16.641,16.695,43.68,0.023,60.367
		L565.273,496.942c0,0-4.58,3.382-7.282,8.186c-2.701,4.806-2.847,14.508-2.847,14.508v247.82
		c26.872-3.034,52.887-8.886,77.745-17.213V556.162c0-3.129,0.415-6.168,1.07-9.1c1.29-8.113,5.093-15.924,11.347-22.188
		l136.535-136.545c15.827-15.859,41.53-15.859,57.396,0c15.79,15.815,15.79,41.509,0,57.354l-125.134,125.22v140.936
		c107.041-67.324,178.23-186.396,178.23-322.193C892.309,179.611,722.05,9.346,512.013,9.346z M512.446,306.79
		c-36.512,0-66.093-29.606-66.093-66.057c0-36.529,29.603-66.104,66.093-66.104c36.498,0,66.057,29.595,66.057,66.104
		C578.521,277.184,548.934,306.79,512.446,306.79z"/>
	<path fill="#686868" d="M696.611,856.451c-24.596,0.023-42.993,6.123-56.205,18.649c-13.027,12.56-20.223,34.27-20.223,61.078
		c0,21.314,5.377,41.335,14.359,53.541c11.477,16.126,33.479,24.935,61.936,24.935c49.625,0,74.804-26.158,74.804-77.769
		C771.305,882.07,747.578,856.496,696.611,856.451z M695.749,999.636c-35.254,0-51.674-20.554-51.674-64.676
		c0-43.193,16.68-63.386,52.438-63.445h0.237c34.604,0.096,50.697,20.64,50.697,64.666
		C747.432,979.463,731.008,999.636,695.749,999.636z"/>
	<path fill="#686868" d="M900.476,935.509c-8.146-7.478-20.438-10.25-45.467-10.25H839.99c-18.515,0-37.438-3.015-37.438-25.338
		c0-10.363,4.932-19.07,12.877-22.723c5.688-2.585,13.308-3.645,26.264-3.645h63.479v-15.918h-64.953
		c-18.191,0-27.922,1.359-35.97,5.063c-14.386,6.514-23.349,21.729-23.349,39.704c0,13.148,5.333,24.732,14.584,31.745
		c7.562,5.809,19.872,8.485,38.79,8.485h21.23c11.372,0,15.672,0.529,20.826,2.55c9.6,3.484,15.614,13.195,15.614,25.311
		c0,9.933-3.938,17.442-11.715,22.192c-5.104,3.444-12.884,4.897-26.697,4.897h-70.838l0.175,15.888h70.167
		c22.565,0,31.935-1.318,40.151-5.644c12.765-6.723,20.393-20.847,20.393-37.836C913.584,955.721,908.684,942.817,900.476,935.509z"
		/>
	<polygon fill="#686868" points="232.515,1014.604 251.44,1014.604 251.44,859.99 232.47,859.99 	"/>
	<path fill="#686868" d="M447.785,904.082h-54.169v13.067h51.466c13.178,0,20.828,1.339,26.086,8.663
		c3.862,5.515,4.23,10.181,4.23,20.47v4.378H429.66v-0.039c-12.945,0-21.305,1.105-26.268,3.484
		c-9.978,4.48-16.136,15.604-16.136,29.103c0,10.685,4.005,19.625,11.26,25.204c6.51,4.873,11.726,6.19,36.042,6.19h59.773v-68.37
		c0-18.651-2.807-25.525-8.028-31.72C480.123,907.171,473.387,904.082,447.785,904.082z M475.388,1001.523h-43.296
		c-12.432,0-25.182-2.229-25.182-18.784c0-8.194,3.971-14.634,10.593-17.287c3.652-1.52,6.853-1.765,14.589-1.765h43.307
		L475.388,1001.523z"/>
	<path fill="#686868" d="M335.73,968.031c12.949,0,21.295-1.116,26.262-3.493c10.01-4.468,16.155-15.598,16.155-29.124
		c0-10.684-3.993-19.604-11.275-25.184c-6.486-4.873-11.729-6.214-36.046-6.214h-18.396c-0.149,0.056-0.457,0.056-1.032,0.056
		c-10.734,0-25.53,2.237-31.832,8.545c-8.359,8.372-8.5,22.983-8.5,23.129v36.684c0,18.633,2.807,25.496,8.023,31.688
		c6.192,7.383,12.918,10.467,38.521,10.467h54.174v-13.071h-51.476c-13.183,0-20.828-1.34-26.09-8.668
		c-3.853-5.528-4.215-10.186-4.215-20.416v-4.396L335.73,968.031L335.73,968.031z M290.002,937.271
		c-0.01-0.745,0.066-7.955,5.891-14.837c3.926-4.601,11.658-5.308,15.931-5.308c0.561,0,0.976,0,1.173,0h20.307
		c12.457,0,25.172,2.249,25.172,18.834c0,8.164-3.94,14.604-10.588,17.282c-3.63,1.492-6.99,1.772-14.604,1.772h-43.282V937.271
		L290.002,937.271z"/>
	<path fill="#686868" d="M118.439,914.515c-5.221,6.173-8.021,13.066-8.021,31.698v26.217c0,18.633,2.8,25.506,8.021,31.698
		c6.192,7.373,12.921,10.467,38.525,10.467h54.159v-13.069H159.65c-13.2,0-20.848-1.334-26.081-8.67
		c-3.862-5.538-4.235-10.186-4.235-20.426v-26.197c0-10.237,0.373-14.925,4.235-20.42c5.233-7.344,12.881-8.684,26.081-8.684h51.473
		v-13.071h-54.159C131.355,904.058,124.631,907.171,118.439,914.515z"/>
	<path fill="#686868" d="M596.749,912.049c-6.576-5.982-15.133-8.011-33.812-8.011h-48.925l0.011,110.565h18.938v-97h28.503
		c15.37,0.022,22.81,4.928,24.965,17.426h18.275C604.066,921.311,601.313,916.111,596.749,912.049z"/>
</g>
</svg>
